<svg id="Layer_1" data-name="Layer 1" xmlns="http://www.w3.org/2000/svg" viewBox="0 0 891.43 485.67"><defs><style>.cls-1{fill:#d0d2d3;}.cls-2{fill:#223b73;}.cls-3{fill:#f26f2b;}.cls-4{fill:#ed3c95;}.cls-5{fill:#b2d235;}.cls-6{fill:#7d1a4e;}.cls-7{fill:#ef8022;}.cls-8{fill:#f05626;}.cls-9{fill:#e82328;}.cls-10{fill:#f9a125;}.cls-11{fill:#f7b916;}.cls-12{fill:#2cb6e9;}.cls-13{fill:#1798d5;}.cls-14{fill:#1d2c59;}.cls-15{fill:#03549a;}.cls-16{fill:#b62029;}.cls-17{fill:#811524;}.cls-18{fill:#bd196c;}.cls-19{fill:#5a0314;}.cls-20{fill:#6b0a0c;}.cls-21{fill:#5f0c3b;}.cls-22{fill:#8fc447;}.cls-23{fill:#d20384;}.cls-24{fill:#5fba46;}.cls-25{fill:#006131;}.cls-26{fill:#007c46;}.cls-27{fill:#7d1752;}.cls-28{fill:#a21a64;}.cls-29{font-size:70px;font-family:Roboto-Bold, Roboto;font-weight:700;}.cls-29,.cls-30{fill:#fff;}.cls-30{font-size:38px;font-family:Roboto-Medium, Roboto;font-weight:500;}</style></defs><title>logo</title><polygon class="cls-1" points="24.03 453.29 24.07 424.28 77.2 424.25 77.2 453.29 24.03 453.29"/><rect class="cls-1" x="22.85" y="262.47" width="23.16" height="23.16"/><rect class="cls-1" x="3.15" y="245.43" width="16.83" height="16.83"/><polygon class="cls-1" points="30.88 258.24 30.89 230.89 58.24 230.87 58.24 258.24 30.88 258.24"/><path class="cls-1" d="M90.05,71.31V98.16H63.2v56.58h53.7V262.13h28.52V234.91a4.64,4.64,0,0,1,1.22-3.29V125H92.94v-24H224.27v24H170.58V231.86a4.79,4.79,0,0,1,.83,2.8v27.46h28.91V154.74H254V71.32Z" transform="translate(-40.35 191.16)"/><polygon class="cls-2" points="51.15 344.46 24.3 344.46 24.3 317.61 51.15 344.46"/><polygon class="cls-3" points="104.83 451.85 77.99 451.85 77.99 425 104.83 451.85"/><polygon class="cls-4" points="131.69 425 158.53 425 158.53 451.85 131.69 425"/><polygon class="cls-5" points="77.99 317.62 104.83 317.62 104.83 344.46 77.99 317.62"/><polygon class="cls-6" points="131.68 344.46 131.68 317.61 158.53 317.61 131.68 344.46"/><polygon class="cls-7" points="212.22 317.62 212.22 344.46 185.38 344.46 212.22 317.62"/><polygon class="cls-8" points="212.22 263.93 212.22 290.77 185.38 290.77 212.22 263.93"/><polygon class="cls-9" points="212.22 263.92 185.38 290.77 185.38 263.93 212.22 263.92"/><polygon class="cls-10" points="185.38 290.77 212.22 317.61 185.38 317.62 185.38 290.77"/><polygon class="cls-11" points="185.38 344.46 185.38 317.62 212.22 317.61 185.38 344.46"/><polygon class="cls-7" points="185.38 290.77 212.22 290.77 212.22 317.61 185.38 290.77"/><polygon class="cls-10" points="51.1 425 77.94 451.84 51.09 451.84 51.1 425"/><polygon class="cls-7" points="51.09 425 77.94 425 77.94 451.84 51.09 425"/><polygon class="cls-12" points="44.56 263.92 24.3 284.19 24.3 263.92 44.56 263.92"/><polygon class="cls-13" points="44.56 263.92 24.3 284.19 44.56 284.19 44.56 263.92"/><polygon class="cls-2" points="4.6 246.88 18.54 260.81 4.6 260.81 4.6 246.88"/><polygon class="cls-14" points="4.6 246.88 18.54 260.81 18.54 246.88 4.6 246.88"/><polygon class="cls-15" points="32.32 232.32 56.8 256.79 32.32 256.79 32.32 232.32"/><polygon class="cls-2" points="32.32 232.31 56.8 256.79 56.8 232.31 32.32 232.31"/><rect class="cls-1" y="467.91" width="16.83" height="16.83"/><polygon class="cls-1" points="29.04 485.67 29.06 458.32 56.41 458.3 56.41 485.67 29.04 485.67"/><polygon class="cls-2" points="1.45 469.36 15.38 483.29 1.45 483.29 1.45 469.36"/><polygon class="cls-14" points="1.45 469.36 15.38 483.29 15.38 469.36 1.45 469.36"/><polygon class="cls-14" points="51.15 290.77 24.3 317.61 51.15 317.61 51.15 290.77"/><polygon class="cls-15" points="51.15 344.46 51.15 317.61 24.3 317.61 51.15 344.46"/><polygon class="cls-15" points="51.15 290.77 24.3 290.77 24.3 317.61 51.15 290.77"/><polygon class="cls-16" points="158.53 263.92 185.38 263.92 185.38 290.77 158.53 263.92"/><polygon class="cls-17" points="158.53 263.92 185.38 290.77 158.53 290.77 158.53 263.92"/><polygon class="cls-18" points="158.52 317.61 185.38 317.61 185.38 344.46 158.52 317.61"/><polygon class="cls-6" points="158.52 317.61 185.38 344.46 158.53 344.46 158.52 317.61"/><polygon class="cls-18" points="104.83 425.1 131.69 425.1 131.69 451.95 104.83 425.1"/><polygon class="cls-6" points="104.83 425.1 131.69 451.95 104.84 451.95 104.83 425.1"/><polygon class="cls-19" points="131.69 290.77 131.68 263.92 158.53 263.92 131.69 290.77"/><polygon class="cls-20" points="131.69 290.77 158.53 263.92 158.53 290.77 131.69 290.77"/><polygon class="cls-21" points="131.68 344.46 158.53 317.61 158.53 344.46 131.68 344.46"/><polygon class="cls-12" points="104.83 263.92 131.69 263.92 131.69 290.77 104.83 263.92"/><polygon class="cls-13" points="104.83 263.92 131.69 290.77 104.83 290.77 104.83 263.92"/><polygon class="cls-2" points="77.99 290.77 77.99 263.92 104.83 263.92 77.99 290.77"/><polygon class="cls-15" points="77.99 290.77 104.83 263.92 104.83 290.77 77.99 290.77"/><polygon class="cls-22" points="77.99 317.62 104.83 344.46 77.99 344.46 77.99 317.62"/><polygon class="cls-14" points="51.15 263.92 77.99 263.92 77.99 290.77 51.15 263.92"/><polygon class="cls-2" points="51.15 263.92 77.99 290.77 51.15 290.77 51.15 263.92"/><polygon class="cls-13" points="51.15 344.46 51.15 317.61 77.99 317.61 51.15 344.46"/><polygon class="cls-12" points="51.15 344.46 77.99 317.61 77.99 344.46 51.15 344.46"/><polygon class="cls-23" points="131.68 425 158.53 451.85 131.68 451.85 131.68 425"/><polygon class="cls-10" points="55.52 459.31 30.22 484.48 30.22 459.31 55.52 459.31"/><polygon class="cls-7" points="77.99 425 104.83 425 104.83 451.85 77.99 425"/><polygon class="cls-11" points="55.39 459.31 55.38 484.76 29.94 484.76 55.39 459.31"/><polygon class="cls-23" points="158.53 398.15 158.53 425 131.69 425 158.53 398.15"/><polygon class="cls-18" points="158.53 398.15 131.69 425 131.68 398.15 158.53 398.15"/><polygon class="cls-22" points="104.83 398.15 104.83 424.99 77.99 424.99 104.83 398.15"/><polygon class="cls-24" points="104.83 398.15 77.99 424.99 77.99 398.15 104.83 398.15"/><polygon class="cls-6" points="158.53 398.15 131.68 398.15 131.68 371.3 158.53 398.15"/><polygon class="cls-18" points="158.53 398.15 131.68 371.3 158.53 371.3 158.53 398.15"/><polygon class="cls-25" points="77.99 371.3 104.83 371.3 104.83 398.15 77.99 371.3"/><polygon class="cls-26" points="77.99 371.3 104.83 398.15 77.99 398.15 77.99 371.3"/><polygon class="cls-27" points="158.53 344.46 158.53 371.3 131.69 371.3 158.53 344.46"/><polygon class="cls-28" points="158.53 344.46 131.69 371.3 131.68 344.46 158.53 344.46"/><polygon class="cls-26" points="104.83 344.46 104.83 371.3 77.99 371.3 104.83 344.46"/><polygon class="cls-24" points="104.83 344.46 77.99 371.3 78 344.46 104.83 344.46"/><polygon class="cls-7" points="15.38 469.46 15.38 483.29 1.45 483.29 15.38 469.46"/><polygon class="cls-11" points="1.53 483.29 1.53 469.36 15.29 469.36 1.53 483.29"/><polygon class="cls-7" points="51.09 425.2 51.09 451.84 25.08 451.84 51.09 425.2"/><polygon class="cls-11" points="25.25 451.84 25.25 425 50.93 425 25.25 451.84"/><text x="-40.35" y="191.16"/><text class="cls-29" transform="translate(246.73 360.52)">TRUEDEZIGNZ</text><text class="cls-30" transform="translate(248.12 407.01)">Design with a human touch</text></svg>