<svg id="Layer_1" data-name="Layer 1" xmlns="http://www.w3.org/2000/svg" viewBox="0 0 768.08 312.03"><defs><style>.cls-1{fill:#d0d2d3;}.cls-2{fill:#223b73;}.cls-3{fill:#f26f2b;}.cls-4{fill:#ed3c95;}.cls-5{fill:#b2d235;}.cls-6{fill:#7d1a4e;}.cls-7{fill:#ef8022;}.cls-8{fill:#f05626;}.cls-9{fill:#e82328;}.cls-10{fill:#f9a125;}.cls-11{fill:#f7b916;}.cls-12{fill:#2cb6e9;}.cls-13{fill:#1798d5;}.cls-14{fill:#1d2c59;}.cls-15{fill:#03549a;}.cls-16{fill:#b62029;}.cls-17{fill:#811524;}.cls-18{fill:#bd196c;}.cls-19{fill:#5a0314;}.cls-20{fill:#6b0a0c;}.cls-21{fill:#5f0c3b;}.cls-22{fill:#8fc447;}.cls-23{fill:#d20384;}.cls-24{fill:#5fba46;}.cls-25{fill:#006131;}.cls-26{fill:#007c46;}.cls-27{fill:#7d1752;}.cls-28{fill:#a21a64;}.cls-29{font-size:70px;font-family:Roboto-Bold, Roboto;font-weight:700;}.cls-29,.cls-30{fill:#202020;}.cls-30{font-size:38px;font-family:Roboto-Medium, Roboto;font-weight:500;}</style></defs><title>logo</title><polygon class="cls-1" points="64.38 262.13 64.42 233.11 117.55 233.09 117.55 262.13 64.38 262.13"/><rect class="cls-1" x="63.2" y="71.31" width="23.16" height="23.16"/><rect class="cls-1" x="43.5" y="54.26" width="16.83" height="16.83"/><polygon class="cls-1" points="71.22 67.07 71.24 39.73 98.59 39.7 98.59 67.07 71.22 67.07"/><path class="cls-1" d="M90.05,71.31V98.16H63.2v56.58h53.7V262.13h28.52V234.91a4.64,4.64,0,0,1,1.22-3.29V125H92.94v-24H224.27v24H170.58V231.86a4.79,4.79,0,0,1,.83,2.8v27.46h28.91V154.74H254V71.32Z"/><polygon class="cls-2" points="91.5 153.29 64.65 153.29 64.65 126.45 91.5 153.29"/><polygon class="cls-3" points="145.18 260.68 118.34 260.68 118.34 233.83 145.18 260.68"/><polygon class="cls-4" points="172.03 233.83 198.88 233.83 198.88 260.68 172.03 233.83"/><polygon class="cls-5" points="118.34 126.45 145.18 126.45 145.18 153.29 118.34 126.45"/><polygon class="cls-6" points="172.03 153.29 172.03 126.45 198.87 126.45 172.03 153.29"/><polygon class="cls-7" points="252.57 126.45 252.57 153.3 225.72 153.3 252.57 126.45"/><polygon class="cls-8" points="252.57 72.76 252.57 99.61 225.72 99.61 252.57 72.76"/><polygon class="cls-9" points="252.57 72.76 225.72 99.61 225.72 72.76 252.57 72.76"/><polygon class="cls-10" points="225.72 99.6 252.57 126.45 225.72 126.45 225.72 99.6"/><polygon class="cls-11" points="225.72 153.3 225.72 126.45 252.57 126.45 225.72 153.3"/><polygon class="cls-7" points="225.72 99.6 252.57 99.6 252.57 126.45 225.72 99.6"/><polygon class="cls-10" points="91.44 233.84 118.29 260.68 91.44 260.68 91.44 233.84"/><polygon class="cls-7" points="91.44 233.84 118.29 233.84 118.29 260.68 91.44 233.84"/><polygon class="cls-12" points="84.9 72.76 64.65 93.02 64.65 72.76 84.9 72.76"/><polygon class="cls-13" points="84.91 72.76 64.65 93.02 84.91 93.02 84.91 72.76"/><polygon class="cls-2" points="44.95 55.72 58.88 69.65 44.95 69.65 44.95 55.72"/><polygon class="cls-14" points="44.95 55.71 58.88 69.65 58.88 55.71 44.95 55.71"/><polygon class="cls-15" points="72.67 41.15 97.15 65.62 72.67 65.62 72.67 41.15"/><polygon class="cls-2" points="72.67 41.15 97.15 65.62 97.15 41.15 72.67 41.15"/><rect class="cls-1" x="40.35" y="276.75" width="16.83" height="16.83"/><polygon class="cls-1" points="69.39 294.5 69.41 267.16 96.76 267.13 96.76 294.5 69.39 294.5"/><polygon class="cls-2" points="41.79 278.2 55.73 292.13 41.79 292.13 41.79 278.2"/><polygon class="cls-14" points="41.79 278.19 55.73 292.13 55.73 278.19 41.79 278.19"/><polygon class="cls-14" points="91.5 99.6 64.65 126.45 91.5 126.45 91.5 99.6"/><polygon class="cls-15" points="91.5 153.29 91.5 126.45 64.65 126.45 91.5 153.29"/><polygon class="cls-15" points="91.5 99.6 64.65 99.6 64.65 126.45 91.5 99.6"/><polygon class="cls-16" points="198.87 72.76 225.72 72.76 225.72 99.6 198.87 72.76"/><polygon class="cls-17" points="198.87 72.76 225.72 99.6 198.87 99.6 198.87 72.76"/><polygon class="cls-18" points="198.87 126.45 225.72 126.45 225.72 153.3 198.87 126.45"/><polygon class="cls-6" points="198.87 126.45 225.72 153.3 198.87 153.3 198.87 126.45"/><polygon class="cls-18" points="145.18 233.93 172.03 233.93 172.03 260.78 145.18 233.93"/><polygon class="cls-6" points="145.18 233.93 172.03 260.78 145.19 260.78 145.18 233.93"/><polygon class="cls-19" points="172.03 99.6 172.03 72.76 198.87 72.76 172.03 99.6"/><polygon class="cls-20" points="172.03 99.6 198.87 72.76 198.87 99.6 172.03 99.6"/><polygon class="cls-21" points="172.03 153.29 198.87 126.45 198.87 153.3 172.03 153.29"/><polygon class="cls-12" points="145.18 72.76 172.03 72.76 172.03 99.6 145.18 72.76"/><polygon class="cls-13" points="145.18 72.76 172.03 99.6 145.18 99.6 145.18 72.76"/><polygon class="cls-2" points="118.34 99.6 118.34 72.76 145.18 72.76 118.34 99.6"/><polygon class="cls-15" points="118.34 99.6 145.18 72.76 145.18 99.6 118.34 99.6"/><polygon class="cls-22" points="118.34 126.45 145.18 153.29 118.34 153.29 118.34 126.45"/><polygon class="cls-14" points="91.5 72.76 118.34 72.76 118.34 99.6 91.5 72.76"/><polygon class="cls-2" points="91.5 72.76 118.34 99.6 91.5 99.6 91.5 72.76"/><polygon class="cls-13" points="91.5 153.29 91.5 126.45 118.34 126.45 91.5 153.29"/><polygon class="cls-12" points="91.5 153.29 118.34 126.45 118.34 153.29 91.5 153.29"/><polygon class="cls-23" points="172.03 233.83 198.88 260.68 172.03 260.68 172.03 233.83"/><polygon class="cls-10" points="95.86 268.14 70.57 293.31 70.57 268.14 95.86 268.14"/><polygon class="cls-7" points="118.34 233.83 145.18 233.83 145.18 260.68 118.34 233.83"/><polygon class="cls-11" points="95.73 268.14 95.73 293.6 70.28 293.6 95.73 268.14"/><polygon class="cls-23" points="198.88 206.99 198.88 233.83 172.03 233.83 198.88 206.99"/><polygon class="cls-18" points="198.88 206.99 172.03 233.83 172.03 206.99 198.88 206.99"/><polygon class="cls-22" points="145.18 206.98 145.18 233.83 118.33 233.83 145.18 206.98"/><polygon class="cls-24" points="145.18 206.98 118.33 233.83 118.33 206.98 145.18 206.98"/><polygon class="cls-6" points="198.88 206.98 172.03 206.98 172.03 180.14 198.88 206.98"/><polygon class="cls-18" points="198.88 206.98 172.03 180.14 198.88 180.14 198.88 206.98"/><polygon class="cls-25" points="118.34 180.14 145.18 180.14 145.18 206.98 118.34 180.14"/><polygon class="cls-26" points="118.34 180.14 145.18 206.98 118.34 206.98 118.34 180.14"/><polygon class="cls-27" points="198.88 153.29 198.88 180.13 172.03 180.13 198.88 153.29"/><polygon class="cls-28" points="198.88 153.29 172.03 180.13 172.03 153.29 198.88 153.29"/><polygon class="cls-26" points="145.18 153.29 145.18 180.14 118.34 180.14 145.18 153.29"/><polygon class="cls-24" points="145.18 153.29 118.34 180.14 118.34 153.29 145.18 153.29"/><polygon class="cls-7" points="55.73 278.3 55.73 292.13 41.79 292.13 55.73 278.3"/><polygon class="cls-11" points="41.88 292.13 41.88 278.19 55.64 278.19 41.88 292.13"/><polygon class="cls-7" points="91.44 234.04 91.44 260.68 65.43 260.68 91.44 234.04"/><polygon class="cls-11" points="65.59 260.68 65.59 233.84 91.28 233.84 65.59 260.68"/><text class="cls-29" transform="translate(287.08 169.36)">TRUEDEZIGNZ</text><text class="cls-30" transform="translate(288.46 215.85)">Design with a human touch</text></svg>